<?xml version="1.0" standalone="no"?>
<!DOCTYPE svg PUBLIC "-//W3C//DTD SVG 20010904//EN"
 "http://www.w3.org/TR/2001/REC-SVG-20010904/DTD/svg10.dtd">
<svg version="1.0" xmlns="http://www.w3.org/2000/svg"
 width="460.000000pt" height="460.000000pt" viewBox="0 0 460.000000 460.000000"
 preserveAspectRatio="xMidYMid meet">
<metadata>
Created by potrace 1.11, written by Peter Selinger 2001-2013
</metadata>
<g transform="translate(0.000000,460.000000) scale(0.100000,-0.100000)"
fill="#000000" stroke="none">
<path d="M2066 3963 c3 -16 10 -42 14 -60 7 -27 6 -31 -8 -25 -15 5 -15 4 -3
-11 20 -25 4 -21 -22 6 -12 12 -18 19 -13 15 18 -14 29 -8 15 8 -22 27 -67 44
-116 44 -48 0 -136 -22 -157 -39 -6 -5 -33 -12 -61 -16 -54 -8 -125 -40 -164
-74 -13 -12 -28 -21 -33 -21 -4 0 -8 -6 -8 -12 0 -7 -17 -24 -37 -38 -52 -35
-109 -99 -127 -140 -46 -112 -72 -260 -67 -385 1 -32 -5 -63 -17 -86 -12 -24
-16 -43 -11 -58 5 -13 4 -21 -2 -21 -6 0 -5 -8 2 -21 7 -14 9 -54 6 -113 -3
-50 -2 -77 2 -61 7 30 7 29 16 -15 4 -25 8 -64 7 -87 0 -24 4 -43 9 -43 4 0 6
-7 2 -15 -3 -9 1 -23 9 -33 20 -24 39 -72 33 -82 -3 -5 3 -14 14 -19 13 -8 19
-21 19 -41 -1 -16 -4 -30 -8 -30 -5 0 -10 -7 -14 -15 -3 -9 0 -15 10 -15 8 0
12 5 9 10 -3 6 -1 10 5 10 9 0 4 -46 -6 -59 -2 -2 2 -13 8 -25 7 -11 12 -25
13 -29 0 -4 5 -11 11 -15 17 -10 26 -49 14 -57 -6 -3 -8 -10 -6 -14 3 -4 8
-41 12 -82 6 -71 21 -124 25 -89 1 8 3 26 5 40 3 21 5 143 4 200 -1 40 11 187
16 200 4 8 8 28 9 44 2 16 8 32 15 36 9 6 9 9 -1 13 -9 3 -7 6 6 6 13 1 16 4
8 9 -9 6 -6 15 12 34 14 15 25 32 25 38 0 5 6 10 13 11 6 0 3 4 -8 9 l-20 9
20 1 c18 1 17 3 -5 12 l-25 11 23 4 c17 3 21 9 17 23 -4 13 2 20 25 28 37 13
39 21 4 14 l-26 -5 32 63 c17 34 34 59 37 56 3 -3 -2 -17 -11 -31 -9 -14 -12
-25 -6 -25 17 0 25 5 22 13 -5 16 57 135 79 151 13 9 20 16 17 16 -4 0 18 23
48 52 30 28 52 53 49 56 -3 3 -11 0 -17 -6 -7 -7 -17 -12 -23 -12 -5 0 5 10
23 21 17 12 32 28 32 36 0 8 5 11 13 7 6 -4 9 -3 4 1 -9 10 21 45 39 45 7 0
22 9 33 21 11 13 24 18 32 14 8 -5 10 -4 5 3 -5 8 0 12 13 12 12 0 21 6 21 13
0 8 3 7 9 -2 8 -12 11 -9 16 12 8 29 24 34 43 15 10 -10 15 -10 22 2 7 11 11
8 21 -13 13 -28 29 -36 29 -14 0 8 3 8 9 -2 5 -8 15 -11 23 -8 28 10 40 -10
46 -78 6 -76 19 -69 23 12 2 47 5 51 33 60 22 7 42 6 66 -3 19 -7 28 -13 20
-13 -13 -1 -13 -3 -1 -10 8 -5 20 -7 28 -4 7 3 13 0 13 -5 0 -6 6 -17 13 -24
32 -34 40 -64 26 -104 -7 -22 -17 -43 -21 -49 -4 -5 -8 -15 -8 -23 0 -8 -14
-32 -31 -53 -17 -22 -32 -47 -34 -57 -1 -9 -7 -16 -13 -15 -5 1 -29 -15 -52
-37 -23 -21 -61 -49 -84 -60 -33 -17 -35 -21 -12 -15 27 6 70 32 110 67 11 10
21 16 23 14 5 -5 -22 -39 -64 -83 -64 -64 -21 -43 58 29 69 63 99 119 152 275
5 18 18 40 27 48 16 14 17 13 16 -14 -1 -16 -4 -27 -8 -25 -4 2 -9 0 -13 -6
-3 -5 -2 -10 4 -10 6 0 10 -26 10 -62 0 -35 7 -105 15 -157 9 -52 14 -96 12
-98 -6 -6 -26 84 -35 157 l-8 65 -2 -61 c-1 -67 30 -203 51 -219 8 -5 12 -17
11 -25 -2 -9 5 -24 15 -35 10 -11 24 -29 30 -40 10 -17 11 -13 6 21 -8 52 8
63 41 30 40 -40 41 -31 2 13 l-35 39 48 93 c26 52 59 112 73 134 47 71 81 115
85 110 9 -9 -30 -88 -69 -141 -22 -31 -39 -58 -36 -60 6 -6 70 84 97 136 14
28 26 40 36 36 11 -4 13 0 8 18 -3 14 0 29 10 38 8 9 13 17 11 19 -2 2 12 4
30 4 26 0 31 -3 23 -12 -6 -7 -19 -13 -30 -13 -10 0 -16 -5 -13 -10 3 -6 16
-8 29 -4 14 3 27 -1 35 -10 14 -17 36 -22 26 -7 -3 5 -1 12 5 16 6 3 13 -2 17
-12 4 -10 9 -20 12 -23 3 -3 16 -26 28 -52 l23 -48 -25 0 c-17 0 -25 6 -25 18
0 14 -2 15 -10 2 -6 -10 -10 -11 -10 -2 0 6 -6 12 -12 12 -26 -1 35 -40 61
-40 23 0 32 -9 53 -50 14 -27 21 -50 15 -50 -12 0 0 -14 14 -16 5 -1 13 -2 18
-3 5 0 17 -8 26 -17 15 -15 19 -15 57 2 42 19 63 53 53 85 -3 10 -2 26 3 36 6
10 13 44 16 76 4 32 7 61 8 65 1 4 -3 16 -7 26 -6 13 -5 21 3 24 8 2 1 24 -18
63 -34 66 -27 74 23 29 34 -29 54 -39 43 -21 -4 5 2 8 11 6 47 -9 103 -12 103
-5 0 4 -24 10 -52 13 -96 10 -178 68 -178 126 0 23 -14 42 -33 45 -9 1 -25 10
-37 21 -11 10 -20 13 -20 8 0 -6 6 -16 14 -23 16 -13 7 -47 -23 -84 -13 -15
-13 -20 -3 -23 16 -6 -15 -32 -38 -32 -9 0 -4 6 10 14 19 11 21 14 8 15 -16 0
-16 2 3 21 12 12 17 24 12 28 -5 3 -10 16 -10 29 -2 28 -38 88 -58 95 -18 8
-37 44 -26 51 4 3 18 -3 30 -13 12 -11 17 -21 11 -23 -6 -2 4 -17 21 -33 l32
-30 -24 35 c-13 19 -23 36 -21 38 9 9 -2 24 -28 37 -35 18 -54 19 -44 3 5 -9
2 -9 -9 1 -14 11 -20 11 -33 1 -8 -8 -14 -9 -13 -4 3 12 -34 74 -44 74 -5 0
-5 5 -2 11 5 7 13 4 26 -7 10 -9 16 -20 14 -24 -3 -4 2 -13 10 -20 8 -7 15 -9
15 -5 0 4 7 2 15 -5 34 -28 12 9 -24 42 -38 34 -42 35 -103 31 -35 -2 -78 -8
-97 -13 -25 -7 -39 -5 -60 8 l-26 17 28 -33 c29 -36 33 -47 18 -56 -5 -3 -7
-23 -4 -45 3 -25 1 -41 -7 -46 -8 -5 -11 -3 -8 6 3 8 -1 28 -9 46 -17 41 -16
46 2 40 30 -12 22 11 -30 81 -30 40 -52 72 -50 72 2 0 21 -11 41 -25 27 -18
32 -25 18 -25 -11 0 -3 -8 21 -19 35 -16 45 -16 83 -5 24 7 50 21 57 31 12 17
15 17 49 0 20 -9 38 -17 40 -17 2 0 2 16 1 36 -4 59 -59 72 -83 19 -8 -18 -16
-23 -29 -18 -10 3 -15 2 -11 -2 10 -10 -29 -38 -41 -30 -6 3 1 16 14 29 28 28
30 79 3 84 -11 2 -18 -7 -23 -30 -7 -31 -8 -32 -16 -10 -9 24 -29 28 -60 11
-32 -17 -77 -19 -90 -3 -6 8 -17 14 -24 14 -6 0 -27 19 -46 43 l-34 42 32 -25
c18 -14 32 -30 32 -35 1 -10 68 -35 93 -35 7 0 13 13 14 29 1 23 -3 28 -15 24
-24 -9 -10 4 24 21 29 15 29 16 6 16 -24 0 -35 8 -94 68 -33 33 -63 43 -53 17
3 -8 1 -15 -4 -15 -6 0 -10 4 -10 9 0 5 -10 12 -22 16 l-23 7 25 9 c18 6 11 7
-25 3 -29 -2 -56 0 -65 7 -12 8 -9 9 12 5 15 -3 30 -2 33 4 9 14 -131 13 -158
-1 -16 -9 -22 -9 -25 0 -5 16 -22 14 -22 -3 0 -8 -14 -22 -32 -30 -39 -20 -44
-20 -28 -1 7 8 8 15 2 15 -5 0 -15 -7 -22 -15 -10 -12 -7 -16 16 -25 22 -9 25
-13 14 -20 -9 -5 -20 -5 -28 2 -10 9 -18 9 -32 0 -19 -12 -37 -1 -26 17 6 8
-21 71 -30 71 -2 0 -2 -12 2 -27z m310 3 c8 -8 10 -17 5 -21 -5 -3 -13 0 -17
7 -5 8 -10 4 -15 -10 -10 -27 -25 -28 -39 -2 -7 12 -16 17 -28 13 -12 -4 -14
-3 -7 5 6 6 26 12 45 15 19 2 36 5 38 5 2 1 10 -4 18 -12z m-136 -28 c0 -6 3
-9 6 -5 7 7 79 -28 89 -43 3 -5 -18 2 -47 15 -29 14 -59 25 -66 25 -7 0 -10 5
-7 10 8 14 25 13 25 -2z m166 -15 c-6 -16 -6 -16 12 0 22 20 36 22 29 4 -4
-10 2 -13 21 -10 18 2 12 -3 -15 -13 -52 -19 -57 -36 -8 -23 24 7 40 7 53 -1
16 -11 16 -11 -2 -6 -18 6 -66 -33 -66 -55 0 -5 -4 -9 -9 -9 -5 0 -7 10 -4 21
4 14 0 26 -9 33 -15 11 -18 17 -18 37 0 5 -4 7 -10 4 -15 -9 -12 2 6 19 20 21
28 20 20 -1z m-501 -30 c-34 -9 -68 -49 -60 -73 4 -14 2 -20 -7 -18 -8 2 -14
-9 -16 -29 -2 -18 -8 -33 -13 -33 -6 0 -9 15 -8 33 5 55 65 127 104 126 l20
-1 -20 -5z m247 1 c4 -3 0 -21 -8 -40 -8 -19 -12 -39 -9 -44 4 -6 1 -10 -4
-10 -6 0 -10 -3 -9 -7 0 -5 -2 -16 -6 -25 -10 -22 -43 -24 -43 -3 0 10 6 13
17 10 14 -4 19 2 23 27 3 18 1 37 -4 43 -5 5 -9 16 -8 25 0 10 2 11 6 3 8 -20
23 -15 23 7 0 19 11 26 22 14z m51 -33 c-16 -13 -23 -34 -28 -84 -4 -37 -11
-70 -16 -72 -4 -3 -6 -13 -3 -23 5 -14 2 -13 -11 3 -14 18 -14 20 -1 23 12 3
15 16 12 62 -3 60 10 105 31 105 6 0 15 3 19 8 4 4 10 4 13 1 3 -3 -4 -14 -16
-23z m41 8 c-3 -6 7 -7 24 -4 22 3 32 0 36 -11 5 -14 4 -15 -9 -4 -20 17 -20
-1 0 -40 10 -20 23 -30 38 -30 l22 1 -22 18 c-30 25 -30 37 -1 17 12 -9 35
-16 50 -16 41 0 34 -17 -9 -24 -21 -4 -46 -9 -56 -12 -13 -4 -21 4 -32 30 -17
40 -42 50 -31 14 4 -13 9 -34 12 -47 4 -21 3 -23 -10 -11 -9 7 -14 16 -11 20
3 4 -2 22 -11 39 -16 33 -12 87 6 76 6 -4 8 -11 4 -16z m-537 -9 c-16 -5 -34
-13 -40 -18 -13 -10 -67 -22 -67 -15 0 9 87 43 110 42 24 -1 24 -1 -3 -9z m81
-30 c-18 -22 -36 -40 -39 -40 -3 0 -5 -10 -4 -22 1 -13 0 -15 -2 -5 -2 9 -10
17 -16 17 -9 0 80 88 91 90 2 0 -12 -18 -30 -40z m598 19 c19 -21 19 -21 -9
-8 -15 7 -27 16 -27 21 0 14 16 9 36 -13z m154 11 c0 -5 -2 -10 -4 -10 -3 0
-8 5 -11 10 -3 6 -1 10 4 10 6 0 11 -4 11 -10z m70 -15 c11 -13 8 -15 -14 -15
-23 0 -25 2 -14 15 16 18 13 18 28 0z m-905 -5 c-3 -5 -11 -10 -16 -10 -6 0
-7 5 -4 10 3 6 11 10 16 10 6 0 7 -4 4 -10z m282 -24 c-8 -21 19 -39 48 -34
25 5 25 4 24 -56 -1 -33 -3 -53 -6 -43 -2 9 -8 17 -13 17 -5 0 -7 -6 -4 -14 3
-8 1 -17 -5 -21 -6 -3 -11 0 -11 9 0 8 -6 16 -12 19 -10 3 -10 9 0 26 17 29
15 40 -5 36 -10 -2 -20 -4 -23 -4 -3 -1 2 -6 10 -11 12 -8 12 -10 1 -10 -26 0
-38 29 -27 66 6 19 15 34 20 34 4 0 6 -6 3 -14z m-299 -7 c-4 -13 -128 -22
-128 -9 0 12 13 15 77 17 34 2 53 -1 51 -8z m916 -4 c3 -8 1 -15 -4 -15 -6 0
-10 7 -10 15 0 8 2 15 4 15 2 0 6 -7 10 -15z m-154 -15 c0 -5 -2 -10 -4 -10
-3 0 -8 5 -11 10 -3 6 -1 10 4 10 6 0 11 -4 11 -10z m-780 -10 c0 -5 -17 -10
-37 -10 -21 0 -56 -3 -78 -7 -22 -3 -37 -3 -33 1 15 17 148 31 148 16z m251
-16 c-12 -15 -21 -34 -21 -43 0 -10 -5 -22 -12 -29 -7 -7 -9 -12 -5 -12 4 0
-1 -10 -13 -22 -11 -12 -20 -27 -20 -34 0 -6 -7 -15 -16 -18 -11 -4 -14 -2
-11 6 3 7 16 38 29 68 23 55 64 110 81 110 4 0 -1 -12 -12 -26z m290 9 c13
-16 12 -17 -3 -4 -10 7 -18 15 -18 17 0 8 8 3 21 -13z m197 -26 c4 -21 -17
-21 -43 -1 -20 16 -19 16 4 9 17 -5 22 -4 16 5 -5 8 -3 11 6 8 8 -3 15 -12 17
-21z m51 -15 c0 -24 -1 -25 -9 -7 -12 28 -12 47 0 40 6 -3 10 -18 9 -33z m41
3 c0 -8 8 -11 20 -8 28 7 25 -2 -13 -50 -19 -23 -37 -50 -40 -59 -7 -19 -27
-25 -27 -8 0 6 5 10 12 10 6 0 8 3 5 6 -3 4 -1 16 5 28 6 11 10 43 9 70 -2 44
0 48 13 36 9 -7 16 -18 16 -25z m-920 15 c0 -5 -8 -10 -17 -10 -15 0 -16 2 -3
10 19 12 20 12 20 0z m47 4 c-3 -3 -12 -4 -19 -1 -8 3 -5 6 6 6 11 1 17 -2 13
-5z m220 -41 c-10 -24 -27 -31 -27 -12 0 5 -4 7 -10 4 -6 -4 -7 1 -3 11 4 11
8 13 11 6 6 -19 23 -14 21 6 -3 29 1 38 10 23 6 -9 5 -23 -2 -38z m721 22 c-3
-3 -9 2 -12 12 -6 14 -5 15 5 6 7 -7 10 -15 7 -18z m138 10 c-11 -8 -25 -15
-30 -15 -6 0 -2 7 8 15 11 8 25 15 30 15 6 0 2 -7 -8 -15z m-764 -49 c-27 -57
-44 -68 -35 -24 3 18 10 35 15 36 4 2 8 10 8 17 0 13 21 26 29 19 2 -2 -6 -23
-17 -48z m-324 32 c-3 -7 -34 -22 -69 -34 -35 -11 -76 -27 -89 -34 -23 -12
-24 -12 -11 3 38 47 180 101 169 65z m512 2 c0 -15 -29 -18 -47 -5 -16 12 -15
14 15 13 17 -1 32 -4 32 -8z m220 -10 c0 10 5 9 18 -3 10 -10 22 -14 27 -10 4
5 5 3 2 -3 -4 -7 5 -23 20 -38 14 -14 22 -26 17 -26 -5 0 -24 16 -43 35 -18
19 -37 33 -41 30 -5 -3 -14 5 -20 17 -11 22 -10 22 4 4 11 -13 16 -15 16 -6z
m-913 -43 c-26 -24 -47 -47 -47 -52 -1 -12 -50 -73 -50 -62 0 24 113 157 134
157 5 0 -12 -19 -37 -43z m285 4 c-13 -21 -18 -45 -16 -78 2 -28 -3 -57 -12
-72 l-15 -26 6 29 c17 79 17 86 6 86 -6 0 -11 5 -11 10 0 15 51 93 56 87 3 -3
-3 -19 -14 -36z m260 3 c-3 -16 1 -29 9 -35 7 -4 10 -11 6 -15 -12 -12 -34 15
-32 39 1 12 3 28 4 35 0 7 5 11 10 8 4 -3 6 -17 3 -32z m274 21 c18 -13 18
-14 -4 -8 -12 3 -25 9 -28 14 -8 14 10 11 32 -6z m339 -6 c-4 -5 5 -20 20 -33
l25 -24 -27 -5 c-16 -3 -35 -1 -43 5 -12 8 -12 9 3 4 19 -6 22 6 7 35 -8 13
-7 19 0 19 6 0 8 5 4 12 -4 7 -3 8 5 4 6 -4 9 -12 6 -17z m135 -16 c0 -32 -9
-25 -16 12 -3 17 -1 24 6 20 5 -3 10 -18 10 -32z m-510 -9 c0 -17 -5 -17 -29
-2 -14 9 -16 14 -7 24 13 14 36 0 36 -22z m-555 6 c3 -5 1 -10 -4 -10 -6 0
-11 5 -11 10 0 6 2 10 4 10 3 0 8 -4 11 -10z m483 -21 c36 -32 36 -35 -3 -17
-14 6 -25 18 -25 26 0 8 -6 12 -15 9 -8 -4 -17 -3 -19 2 -13 20 32 5 62 -20z
m418 4 c-7 -7 -26 7 -26 19 0 6 6 6 15 -2 9 -7 13 -15 11 -17z m-198 -8 c-3
-3 -9 2 -12 12 -6 14 -5 15 5 6 7 -7 10 -15 7 -18z m-627 -16 c-5 -13 -10 -19
-10 -12 -1 15 10 45 15 40 3 -2 0 -15 -5 -28z m89 22 c0 -6 -4 -13 -10 -16 -5
-3 -10 1 -10 9 0 9 5 16 10 16 6 0 10 -4 10 -9z m300 -37 c0 -9 -37 15 -51 33
-10 12 -5 11 19 -6 17 -12 32 -24 32 -27z m-699 -32 c-36 -37 -68 -64 -70 -59
-1 4 4 16 13 26 9 10 16 24 16 32 0 15 75 69 96 69 6 0 -18 -30 -55 -68z m133
57 c-6 -11 -31 -12 -37 -1 -3 4 6 8 19 8 13 1 21 -2 18 -7z m76 1 c0 -5 -4
-10 -10 -10 -5 0 -10 5 -10 10 0 6 5 10 10 10 6 0 10 -4 10 -10z m424 -32 c11
-21 11 -26 1 -22 -7 3 -15 15 -18 26 -3 11 -10 17 -16 14 -5 -4 -12 -2 -15 2
-3 5 3 9 14 8 11 0 27 -13 34 -28z m-174 18 c0 -3 -4 -8 -10 -11 -5 -3 -10 -1
-10 4 0 6 5 11 10 11 6 0 10 -2 10 -4z m320 -6 c0 -5 -2 -10 -4 -10 -3 0 -8 5
-11 10 -3 6 -1 10 4 10 6 0 11 -4 11 -10z m195 -8 c-3 -3 -11 0 -18 7 -9 10
-8 11 6 5 10 -3 15 -9 12 -12z m129 -42 c-8 -7 -34 31 -34 49 0 10 8 4 20 -14
10 -16 17 -32 14 -35z m20 44 c3 -8 2 -12 -4 -9 -6 3 -10 10 -10 16 0 14 7 11
14 -7z m-444 -19 c13 -14 21 -25 18 -25 -2 0 -15 11 -28 25 -13 14 -21 25 -18
25 2 0 15 -11 28 -25z m561 8 c11 -15 11 -16 0 -6 -11 9 -18 7 -32 -10 -21
-26 -35 -17 -19 12 13 26 33 27 51 4z m231 -40 c10 -24 17 -52 13 -62 -6 -21
-35 -24 -35 -3 0 9 -15 29 -32 45 -19 16 -25 26 -15 23 15 -5 16 -2 7 14 -8
16 -8 18 5 14 8 -3 13 -9 11 -13 -2 -3 7 -24 20 -46 30 -51 34 -18 4 40 -23
45 -24 49 -9 39 6 -3 20 -26 31 -51z m-1382 32 c-7 -8 -19 -15 -27 -15 -8 0
-12 -4 -8 -10 3 -5 -8 -16 -25 -25 -17 -9 -28 -20 -25 -25 3 -6 -1 -7 -9 -4
-15 6 -11 34 5 34 5 0 17 8 27 18 14 14 56 39 71 41 2 1 -2 -6 -9 -14z m290
11 c0 -2 -7 -9 -15 -16 -13 -11 -14 -10 -9 4 5 14 24 23 24 12z m188 -11 c17
-1 43 -11 55 -24 13 -12 31 -19 39 -16 8 3 21 -2 29 -12 13 -16 12 -17 -4 -4
-9 8 -20 11 -23 8 -8 -8 3 -38 13 -35 4 2 9 -1 11 -7 2 -5 13 -20 24 -32 38
-40 13 -25 -37 23 -26 26 -76 60 -111 76 -35 16 -64 32 -64 35 0 3 8 2 18 -2
9 -5 32 -9 50 -10z m794 -27 c22 -17 39 -41 43 -59 11 -48 -2 -45 -24 4 -12
25 -25 49 -31 52 -14 9 -12 -18 3 -34 10 -11 9 -12 -2 -6 -8 4 -17 2 -22 -6
-7 -9 -8 -1 -3 22 3 22 2 39 -5 43 -6 4 -11 0 -11 -8 0 -8 -4 -17 -8 -20 -5
-3 -6 8 -4 24 5 33 7 32 64 -12z m-549 -33 l6 -50 -14 50 c-17 59 -19 73 -6
60 5 -6 11 -32 14 -60z m-703 26 c-5 -11 -15 -23 -22 -27 -7 -5 -8 -2 -3 7 21
37 44 55 25 20z m219 -27 c-7 -8 -21 -20 -31 -25 -18 -10 -18 -8 -8 11 19 36
44 58 48 42 2 -7 -2 -20 -9 -28z m126 17 c-8 -17 -21 -33 -27 -37 -10 -6 -11
-4 0 7 15 17 16 43 0 33 -7 -4 -8 -3 -4 5 4 6 12 9 17 6 5 -4 9 -1 9 4 0 6 5
11 10 11 6 0 4 -13 -5 -29z m276 12 c13 -16 12 -17 -3 -4 -17 13 -22 21 -14
21 2 0 10 -8 17 -17z m272 -1 c-10 -10 -20 -14 -22 -9 -2 5 3 13 10 18 24 15
30 10 12 -9z m-613 1 c-8 -4 -23 -16 -33 -27 -18 -21 -18 -20 -1 7 9 15 24 27
33 26 13 0 13 -2 1 -6z m844 -9 c3 -8 2 -12 -4 -9 -6 3 -10 10 -10 16 0 14 7
11 14 -7z m-267 -34 c8 0 11 -5 8 -11 -8 -12 -55 28 -54 45 0 6 7 1 16 -11 8
-13 22 -23 30 -23z m-377 11 c0 -6 -5 -13 -10 -16 -7 -4 -7 -12 0 -25 7 -13 7
-21 -1 -26 -19 -11 -32 12 -19 35 6 12 8 26 5 31 -3 6 1 10 9 10 9 0 16 -4 16
-9z m597 -10 c0 -11 -5 -17 -9 -15 -11 7 -10 34 1 34 6 0 9 -9 8 -19z m-1138
-30 c-12 -17 -25 -29 -27 -26 -5 5 41 64 46 59 2 -1 -6 -16 -19 -33z m186 2
c-2 -21 -4 -42 -4 -47 -1 -6 -5 -6 -11 0 -6 6 -6 23 1 47 13 47 19 47 14 0z
m165 18 c0 -5 -10 -11 -22 -14 -22 -6 -22 -6 -4 8 23 17 26 18 26 6z m365 -1
c3 -5 1 -10 -4 -10 -6 0 -11 5 -11 10 0 6 2 10 4 10 3 0 8 -4 11 -10z m672
-62 c-2 -13 -4 -3 -4 22 0 25 2 35 4 23 2 -13 2 -33 0 -45z m-1137 32 c-6 -11
-13 -20 -16 -20 -2 0 0 9 6 20 6 11 13 20 16 20 2 0 0 -9 -6 -20z m200 17 c0
-2 -14 -16 -32 -33 -30 -28 -30 -17 0 19 13 15 32 23 32 14z m1111 -29 c30
-24 41 -58 33 -101 -5 -33 -8 -38 -14 -22 -4 11 -4 21 0 23 16 6 -4 64 -29 80
-27 17 -41 32 -41 45 0 8 24 -4 51 -25z m-1434 7 c0 -8 -4 -15 -8 -15 -4 0
-18 -18 -30 -40 -13 -22 -27 -40 -31 -40 -5 0 -7 -4 -4 -8 3 -5 0 -9 -7 -9 -7
0 -13 8 -13 18 0 10 4 17 9 16 5 -1 23 19 41 45 33 50 43 57 43 33z m223 -5
c0 -5 -5 -10 -11 -10 -5 0 -7 5 -4 10 3 6 8 10 11 10 2 0 4 -4 4 -10z m230 2
c0 -5 -12 -14 -27 -21 l-28 -12 25 21 c29 22 30 23 30 12z m-749 -72 l-10 -25
0 25 c-1 14 3 36 7 50 l7 25 3 -25 c2 -14 -2 -37 -7 -50z m379 50 c-6 -11 -13
-20 -16 -20 -2 0 0 9 6 20 6 11 13 20 16 20 2 0 0 -9 -6 -20z m939 -42 l-2
-63 -7 50 c-6 46 -4 75 6 75 2 0 3 -28 3 -62z m52 -20 l-9 -53 -1 70 c0 50 2
65 9 53 6 -10 7 -36 1 -70z m-1303 45 c-9 -10 -18 -25 -21 -33 -4 -12 -6 -12
-6 2 -1 9 6 24 15 32 21 22 31 20 12 -1z m1052 -18 c0 -5 -5 -3 -10 5 -5 8
-10 20 -10 25 0 6 5 3 10 -5 5 -8 10 -19 10 -25z m-923 3 c-3 -8 -6 -5 -6 6
-1 11 2 17 5 13 3 -3 4 -12 1 -19z m483 14 c0 -8 -43 -32 -56 -32 -12 0 10 22
30 30 27 11 26 11 26 2z m189 -6 c9 -11 9 -16 -1 -22 -7 -4 -10 -4 -6 1 4 4 3
14 -3 22 -6 7 -9 13 -6 13 2 0 10 -6 16 -14z m731 3 c0 -5 4 -8 9 -5 5 4 7 -4
3 -16 -4 -16 -7 -18 -10 -8 -3 8 -9 21 -15 28 -6 8 -6 12 2 12 6 0 11 -5 11
-11z m134 -5 c9 -24 2 -26 -12 -4 -7 11 -8 20 -3 20 5 0 12 -7 15 -16z m-1404
-6 c0 -14 -30 -48 -42 -48 -5 0 -2 10 7 23 8 13 12 27 8 30 -3 4 1 7 10 7 10
0 17 -5 17 -12z m150 -18 c-6 -12 -14 -20 -17 -17 -2 3 1 14 8 26 17 26 24 19
9 -9z m80 26 c0 -3 -4 -8 -10 -11 -5 -3 -10 -1 -10 4 0 6 5 11 10 11 6 0 10
-2 10 -4z m125 -26 c-3 -5 -11 -10 -16 -10 -6 0 -7 5 -4 10 3 6 11 10 16 10 6
0 7 -4 4 -10z m961 -27 c11 -30 8 -63 -6 -63 -4 0 -10 20 -12 45 -4 51 3 58
18 18z m61 5 c-3 -8 -6 -5 -6 6 -1 11 2 17 5 13 3 -3 4 -12 1 -19z m179 9 c4
-4 2 -7 -4 -7 -7 0 -12 -8 -12 -17 -1 -19 -22 -53 -34 -53 -3 0 1 16 9 36 8
20 13 40 10 44 -6 10 21 7 31 -3z m-1865 -24 c-8 -15 -10 -15 -11 -2 0 17 10
32 18 25 2 -3 -1 -13 -7 -23z m1392 2 c-3 -9 -8 -14 -10 -11 -3 3 -2 9 2 15 9
16 15 13 8 -4z m488 -17 c11 -21 11 -22 -4 -9 -10 7 -17 17 -17 22 0 15 9 10
21 -13z m-334 -25 c-3 -10 -5 -4 -5 12 0 17 2 24 5 18 2 -7 2 -21 0 -30z m43
-1 c0 -5 -7 -17 -15 -28 -14 -18 -14 -17 -4 9 12 27 19 34 19 19z m-1325 -22
c3 -5 1 -10 -4 -10 -6 0 -11 5 -11 10 0 6 2 10 4 10 3 0 8 -4 11 -10z m1345
-15 c-7 -8 -17 -15 -22 -15 -6 0 -5 7 2 15 7 8 17 15 22 15 6 0 5 -7 -2 -15z
m-1100 -26 c-12 -16 -25 -28 -28 -25 -5 6 36 56 45 56 3 0 -5 -14 -17 -31z
m1035 2 c-3 -6 -11 -11 -17 -11 -6 0 -6 6 2 15 14 17 26 13 15 -4z m56 -39
c-6 -11 -22 -23 -37 -26 -37 -10 -40 -1 -5 14 17 7 33 22 37 34 4 11 9 16 11
9 2 -7 0 -21 -6 -31z m-216 18 c3 -5 1 -10 -4 -10 -6 0 -11 5 -11 10 0 6 2 10
4 10 3 0 8 -4 11 -10z m284 -54 c-9 -8 -10 -7 -5 7 3 10 7 28 7 40 2 16 3 14
6 -7 3 -16 -1 -34 -8 -40z m46 -27 c2 -75 1 -81 -12 -63 -9 12 -12 31 -9 54 3
19 6 50 6 69 0 69 12 20 15 -60z m-351 -42 c-2 -21 -11 -51 -18 -66 -10 -19
-11 -32 -4 -45 7 -13 7 -17 0 -12 -6 4 -18 -6 -27 -21 -15 -26 -15 -22 -11 87
2 63 6 124 9 135 3 11 6 22 6 24 1 3 12 -10 26 -29 19 -26 23 -41 19 -73z m23
61 c-3 -8 -6 -5 -6 6 -1 11 2 17 5 13 3 -3 4 -12 1 -19z m536 -43 c-3 -9 -8
-14 -10 -11 -3 3 -2 9 2 15 9 16 15 13 8 -4z m-1853 1 c0 -2 -7 -7 -16 -10 -8
-3 -12 -2 -9 4 6 10 25 14 25 6z m1163 -36 c-3 -11 -7 -20 -9 -20 -2 0 -4 9
-4 20 0 11 4 20 9 20 5 0 7 -9 4 -20z m-1253 -10 c-8 -5 -19 -10 -25 -10 -5 0
-3 5 5 10 8 5 20 10 25 10 6 0 3 -5 -5 -10z m1297 -120 c-5 -110 1 -146 17
-104 4 9 9 14 12 11 4 -4 -9 -32 -32 -66 -2 -2 -10 3 -18 12 -8 8 -13 17 -11
21 3 3 0 2 -6 -3 -8 -7 -7 -16 5 -32 18 -26 21 -59 6 -59 -9 0 -27 59 -28 95
0 11 -3 34 -6 50 -6 28 -5 28 8 -5 17 -41 20 -30 6 20 -15 51 -21 130 -11 130
5 0 12 8 14 18 3 9 5 2 6 -16 1 -41 18 -33 27 13 12 67 17 34 11 -85z m-997
90 c0 -5 -5 -10 -11 -10 -5 0 -7 5 -4 10 3 6 8 10 11 10 2 0 4 -4 4 -10z
m1460 -16 c0 -8 11 -19 25 -24 34 -13 57 -60 40 -83 -13 -18 -31 -24 -20 -7 3
6 3 15 -1 21 -5 8 -9 8 -14 -1 -5 -8 -9 -7 -13 5 -4 9 -3 14 2 11 5 -3 11 1
15 9 3 8 0 15 -7 15 -7 0 -18 12 -25 28 -24 49 -26 56 -14 48 7 -4 12 -14 12
-22z m-1500 6 c0 -5 -2 -10 -4 -10 -3 0 -8 5 -11 10 -3 6 -1 10 4 10 6 0 11
-4 11 -10z m-157 -17 c-7 -2 -19 -2 -25 0 -7 3 -2 5 12 5 14 0 19 -2 13 -5z
m170 -12 c-2 -10 -22 -28 -43 -40 -49 -27 -54 -27 -26 4 13 14 26 25 30 25 4
0 14 7 22 15 20 20 23 19 17 -4z m-4 -53 c-9 -16 -14 -19 -17 -9 -2 7 2 17 9
22 20 13 21 11 8 -13z m-154 -6 c-3 -3 -11 0 -18 7 -9 10 -8 11 6 5 10 -3 15
-9 12 -12z m110 -12 c-3 -5 -14 -10 -23 -10 -15 0 -15 2 -2 10 20 13 33 13 25
0z m1118 -25 c-9 -19 -19 -33 -21 -30 -7 7 19 65 29 65 5 0 1 -16 -8 -35z
m-1148 -4 c3 -5 1 -12 -5 -16 -5 -3 -10 1 -10 9 0 18 6 21 15 7z m45 -15 c0
-2 -7 -7 -16 -10 -8 -3 -12 -2 -9 4 6 10 25 14 25 6z m-160 -506 c0 -5 -2 -10
-4 -10 -3 0 -8 5 -11 10 -3 6 -1 10 4 10 6 0 11 -4 11 -10z"/>
<path d="M2030 3740 c0 -11 4 -20 9 -20 5 0 7 9 4 20 -3 11 -7 20 -9 20 -2 0
-4 -9 -4 -20z"/>
<path d="M2010 3590 c35 -24 54 -31 30 -11 -14 11 -29 21 -35 21 -5 0 -3 -5 5
-10z"/>
<path d="M2678 3813 c-28 -14 -38 -33 -18 -33 6 0 10 5 10 10 0 6 24 10 53 10
l52 1 -34 14 c-18 8 -34 15 -35 14 0 -1 -13 -8 -28 -16z"/>
<path d="M2806 3744 c-8 -21 -8 -24 3 -24 12 0 22 28 12 35 -5 3 -12 -2 -15
-11z"/>
<path d="M3105 3491 c9 -18 19 -30 22 -27 4 3 17 -4 30 -16 13 -12 23 -17 23
-11 0 6 -21 28 -46 48 l-46 38 17 -32z"/>
<path d="M3297 3229 c12 -12 24 -21 27 -18 2 2 -8 13 -22 23 l-27 19 22 -24z"/>
<path d="M3347 3210 c3 -11 9 -20 14 -20 11 0 11 3 3 24 -9 23 -23 20 -17 -4z"/>
<path d="M2220 3118 c0 -62 5 -60 13 5 4 28 3 47 -3 47 -6 0 -10 -23 -10 -52z"/>
<path d="M2960 3086 c0 -13 -5 -16 -17 -12 -14 6 -14 4 2 -14 l19 -21 8 22 c5
13 4 27 -2 33 -7 7 -10 4 -10 -8z"/>
<path d="M2212 3020 c0 -14 2 -19 5 -12 2 6 2 18 0 25 -3 6 -5 1 -5 -13z"/>
<path d="M1236 3003 c-6 -14 -5 -15 5 -6 7 7 10 15 7 18 -3 3 -9 -2 -12 -12z"/>
<path d="M2961 2974 c0 -11 3 -14 6 -6 3 7 2 16 -1 19 -3 4 -6 -2 -5 -13z"/>
<path d="M2951 2934 c0 -11 3 -14 6 -6 3 7 2 16 -1 19 -3 4 -6 -2 -5 -13z"/>
<path d="M1945 2884 c-11 -9 -33 -22 -50 -30 -16 -7 -24 -13 -17 -14 17 0 89
37 97 50 9 15 -7 12 -30 -6z"/>
<path d="M1590 2880 c-8 -5 -12 -12 -9 -15 4 -3 12 1 19 10 14 17 11 19 -10 5z"/>
<path d="M3195 2838 c-32 -17 -37 -22 -25 -32 8 -6 17 -18 20 -26 4 -14 16
-162 21 -257 1 -24 5 -43 9 -43 4 0 5 26 3 58 -2 31 1 91 6 132 15 114 20 190
13 189 -4 -1 -25 -10 -47 -21z"/>
<path d="M1815 2830 c-13 -6 -15 -9 -5 -9 8 0 22 4 30 9 18 12 2 12 -25 0z"/>
<path d="M1733 2823 c9 -2 25 -2 35 0 9 3 1 5 -18 5 -19 0 -27 -2 -17 -5z"/>
<path d="M2860 2769 c0 -5 5 -7 10 -4 6 3 10 8 10 11 0 2 -4 4 -10 4 -5 0 -10
-5 -10 -11z"/>
<path d="M4289 2741 c-26 -16 -29 -21 -29 -41 0 -5 -7 -10 -15 -10 -9 0 -18
-7 -21 -15 -4 -8 -16 -15 -28 -15 -30 -1 -60 -22 -64 -45 -5 -26 -6 -27 -36
-29 -14 0 -26 -5 -26 -11 0 -5 -4 -4 -9 3 -6 11 -13 7 -30 -15 -13 -15 -39
-36 -59 -45 -42 -21 -45 -22 -36 -6 4 7 3 8 -5 4 -6 -4 -9 -12 -6 -17 4 -5 -5
-9 -19 -9 -22 0 -26 -5 -26 -29 0 -17 -6 -31 -16 -35 -23 -9 -26 -8 -18 7 6 8
3 8 -9 -1 -9 -8 -21 -11 -26 -7 -6 3 -8 0 -5 -8 4 -10 -6 -16 -36 -21 -23 -3
-45 -4 -51 -1 -11 7 -70 -26 -63 -36 2 -4 -5 -5 -16 -2 -11 3 -20 11 -20 18 0
8 8 11 19 8 11 -3 21 2 24 11 4 9 0 15 -11 15 -9 0 -29 3 -44 7 -18 4 -28 2
-28 -5 0 -6 5 -11 10 -11 6 0 10 -8 10 -19 0 -12 -7 -18 -17 -17 -21 1 -33
-46 -21 -88 10 -38 3 -47 -28 -36 -22 9 -27 7 -31 -10 -3 -11 -12 -20 -19 -20
-8 0 -14 -4 -14 -10 0 -5 -12 -10 -26 -10 -21 0 -24 -3 -15 -14 9 -11 5 -15
-21 -20 -26 -5 -30 -9 -18 -16 8 -5 10 -10 4 -10 -7 0 -15 -7 -18 -16 -5 -13
-2 -15 16 -11 22 6 22 5 4 -8 -11 -8 -26 -15 -33 -15 -7 0 -13 -5 -13 -11 0
-6 9 -8 20 -4 14 5 20 2 20 -9 0 -20 10 -20 46 -1 22 11 31 12 44 2 40 -32 54
-35 116 -28 6 0 10 12 9 25 -2 14 3 27 11 30 15 6 17 76 2 76 -4 0 -5 7 -2 15
4 8 15 15 26 15 10 0 16 5 13 10 -3 6 -1 10 4 10 6 0 11 5 11 12 0 9 -3 9 -12
0 -14 -14 -72 -16 -63 -3 3 5 -2 11 -12 13 -15 3 -15 4 0 20 13 12 14 18 4 21
-6 2 2 2 18 -1 17 -2 41 -5 54 -7 14 -1 27 -10 31 -20 6 -17 7 -17 13 -2 4 10
1 17 -6 17 -7 0 -3 7 8 16 11 8 20 18 20 22 3 29 19 52 39 52 12 0 27 5 33 11
8 8 17 8 33 -1 15 -8 20 -8 16 -1 -4 7 1 11 12 11 21 0 66 43 56 53 -4 4 6 11
21 17 23 9 25 13 15 25 -7 9 -9 19 -5 23 4 4 10 1 12 -5 3 -7 9 -13 14 -13 6
0 8 4 5 9 -4 5 3 7 13 4 16 -4 17 -8 8 -18 -7 -7 -16 -10 -22 -7 -5 3 -4 -2 4
-11 11 -14 11 -17 0 -18 -8 0 -5 -4 6 -9 17 -7 17 -9 3 -9 -10 -1 -18 -5 -18
-11 0 -5 -9 -10 -21 -10 -30 0 -121 -81 -108 -96 7 -9 2 -14 -18 -18 -20 -5
-32 -16 -40 -36 -8 -22 -18 -30 -35 -30 -22 0 -24 -4 -20 -35 2 -19 8 -37 12
-40 13 -8 78 23 93 45 7 11 16 17 20 14 9 -9 48 6 42 17 -5 8 14 13 36 11 4
-1 15 8 24 18 10 11 27 20 37 20 26 0 74 26 81 44 9 22 -19 13 -42 -14 -11
-14 -20 -20 -21 -14 0 6 3 14 7 18 4 4 8 15 8 24 0 13 7 16 27 14 15 -2 39 5
54 15 16 10 25 12 21 5 -6 -8 1 -15 18 -22 14 -5 28 -17 32 -26 8 -22 -51 -75
-75 -67 -15 6 -15 5 -3 -11 13 -16 13 -17 -4 -14 -14 2 -20 -3 -20 -16 0 -16
-8 -20 -42 -22 -26 -1 -49 -10 -62 -23 -12 -12 -27 -21 -34 -21 -7 0 -23 -8
-36 -17 -23 -16 -23 -17 -5 -24 17 -7 17 -8 -4 -8 -31 -1 -63 -18 -84 -45 -21
-25 -23 -56 -4 -56 17 0 27 -24 20 -45 -5 -12 -10 -13 -20 -4 -11 9 -21 5 -46
-16 -18 -16 -33 -31 -33 -34 0 -3 -3 -5 -6 -4 -4 1 -5 -6 -2 -17 4 -14 -1 -21
-21 -26 -16 -4 -23 -11 -19 -18 4 -6 -1 -4 -12 4 -20 17 -25 17 -35 0 -5 -8
-16 -4 -35 14 -15 14 -31 26 -35 26 -12 0 -22 -34 -12 -38 5 -1 6 -16 4 -33
-3 -21 -9 -29 -19 -25 -8 3 -23 1 -34 -5 -16 -8 -18 -13 -8 -25 9 -11 7 -18
-12 -34 -30 -24 -60 -35 -68 -24 -10 15 -41 13 -41 -2 0 -8 -10 -14 -23 -14
-12 0 -28 -9 -35 -20 -7 -11 -19 -20 -27 -20 -16 0 -20 -12 -8 -24 11 -11 12
-36 1 -36 -5 0 -21 9 -35 20 -14 11 -29 20 -32 20 -4 0 -20 -28 -35 -62 -16
-35 -37 -75 -48 -90 -11 -16 -16 -28 -13 -28 4 0 0 -6 -7 -14 -56 -60 -113
-131 -110 -138 1 -4 -2 -8 -8 -8 -5 0 -10 -5 -10 -11 0 -7 -18 -31 -40 -55
-22 -24 -40 -49 -40 -55 0 -6 -7 -8 -16 -5 -8 3 -12 2 -9 -4 3 -6 -12 -29 -33
-52 -22 -24 -52 -58 -67 -75 -21 -26 -35 -33 -61 -33 -19 0 -34 -4 -34 -8 0
-8 -39 -14 -85 -13 -11 1 -53 -4 -92 -10 -73 -10 -118 -6 -108 12 4 5 -1 9 -9
9 -9 0 -16 -4 -16 -10 0 -5 -7 -10 -16 -10 -9 0 -12 5 -8 12 5 7 3 8 -5 3 -11
-6 -94 27 -111 45 -7 7 -49 30 -55 30 -4 0 -3 -5 1 -12 4 -7 3 -8 -4 -4 -6 4
-8 14 -5 23 4 10 2 14 -4 10 -17 -11 -73 4 -73 19 0 8 -4 14 -9 14 -11 0 -86
60 -75 60 5 1 -3 8 -18 16 -30 16 -35 29 -15 37 6 3 2 6 -10 6 -24 1 -33 21
-10 21 8 0 7 3 -3 9 -8 6 -18 7 -23 4 -5 -3 -7 3 -6 13 2 11 0 25 -4 32 -5 6
-5 12 -2 12 4 0 -13 19 -37 42 -38 37 -49 42 -89 43 -44 0 -84 19 -74 35 7 11
-39 -1 -46 -13 -8 -12 -50 23 -42 36 3 5 -3 7 -13 6 -27 -4 -61 17 -69 42 -5
15 -10 18 -15 10 -10 -16 -54 121 -76 237 -10 50 -21 92 -26 92 -4 0 -5 7 -2
15 9 21 -13 19 -33 -4 -9 -11 -20 -18 -25 -15 -4 3 -8 -2 -8 -11 0 -9 -13 -28
-28 -43 -16 -15 -31 -35 -34 -44 -4 -9 -30 -27 -57 -40 -28 -12 -51 -26 -51
-30 0 -5 -6 -8 -12 -8 -11 0 -59 -62 -63 -80 -13 -53 -18 -60 -56 -66 -21 -4
-39 -10 -39 -14 0 -4 -22 -8 -48 -8 -27 0 -63 -7 -80 -16 -18 -9 -32 -12 -32
-6 0 5 7 10 15 10 8 0 15 5 15 10 0 14 -44 3 -100 -23 -25 -12 -44 -28 -43
-34 2 -7 0 -14 -5 -14 -4 -1 -22 -3 -40 -5 -44 -5 -120 -39 -141 -62 -9 -11
-21 -17 -28 -15 -7 2 -18 -5 -25 -16 -7 -12 -23 -21 -35 -21 -12 0 -25 -5 -28
-10 -4 -6 5 -10 21 -10 60 0 13 -9 -76 -15 -52 -4 -99 -10 -105 -14 -5 -5 -35
-11 -65 -14 -61 -6 -162 -40 -184 -63 -18 -18 -32 -19 -17 -1 6 8 9 16 6 19
-3 3 16 13 42 22 41 14 43 16 13 11 l-35 -5 26 23 c29 26 27 48 -4 46 -17 -1
-18 -2 -4 -6 22 -6 22 -25 -1 -21 -9 1 -27 -7 -38 -18 -18 -18 -21 -35 -23
-146 l-2 -126 82 24 c55 16 105 24 148 23 37 -1 55 -4 42 -6 -16 -3 -20 -7
-12 -13 8 -4 0 -7 -18 -6 -17 1 -31 4 -31 9 0 4 -5 7 -11 7 -5 0 -7 -4 -4 -10
4 -6 -10 -10 -36 -10 -26 0 -50 -7 -62 -17 -11 -10 -17 -12 -13 -5 9 16 -24
16 -59 0 -22 -10 -25 -17 -25 -68 l0 -57 67 20 c38 11 86 21 108 23 39 3 39 3
-10 -11 l-50 -14 82 2 c48 1 87 -3 93 -9 8 -8 -13 -10 -75 -8 -48 2 -95 0
-106 -6 -10 -6 -19 -7 -19 -2 0 10 -76 -1 -88 -12 -3 -4 14 -4 38 -1 45 6 45
6 15 -8 -16 -8 -35 -12 -42 -10 -9 4 -12 -86 -13 -391 l0 -396 2300 0 2300 0
0 1264 c0 1002 -3 1265 -12 1269 -10 4 -10 6 0 6 16 1 17 161 1 161 -5 0 -7
-4 -4 -10 3 -5 -1 -10 -9 -10 -9 0 -16 -5 -16 -10 0 -6 -11 -8 -27 -3 -41 10
-65 6 -75 -12 -5 -8 -14 -12 -20 -9 -6 4 -14 0 -19 -7 -6 -10 -9 -11 -9 -1 0
6 -6 12 -13 12 -26 0 -67 -25 -67 -42 0 -9 -4 -20 -10 -23 -5 -3 -10 -2 -10 4
0 6 -7 8 -15 5 -9 -4 -24 3 -35 16 -27 31 -25 37 9 32 26 -4 29 -1 27 20 -3
22 1 24 35 23 51 -2 68 9 52 32 -6 10 -17 17 -23 15 -7 -2 -20 4 -29 11 -14
13 -20 12 -42 -2z m-211 -218 c-2 -10 -10 -17 -18 -15 -11 3 -11 0 -1 -12 7
-8 8 -17 3 -20 -14 -9 -24 24 -12 39 5 6 7 15 3 18 -3 4 1 7 11 7 11 0 16 -6
14 -17z m423 10 c-25 -5 -61 -33 -42 -33 5 0 13 5 16 10 3 6 14 10 23 9 11 0
12 -2 4 -6 -6 -2 -10 -9 -6 -14 3 -5 -14 -9 -38 -8 -24 0 -37 3 -30 6 6 2 12
11 12 18 0 15 21 23 60 22 l25 0 -24 -4z m-480 -26 c-13 -13 -26 -3 -16 12 3
6 11 8 17 5 6 -4 6 -10 -1 -17z m289 -2 c10 -12 10 -15 -4 -15 -9 0 -16 7 -16
15 0 8 2 15 4 15 2 0 9 -7 16 -15z m-124 -24 c-3 -5 1 -12 10 -15 8 -3 13 -2
10 2 -6 10 92 7 102 -3 4 -4 -2 -5 -12 -1 -17 6 -17 5 -5 -11 12 -15 12 -16
-3 -10 -10 3 -20 1 -24 -5 -5 -7 -12 -5 -22 8 -9 12 -16 15 -19 8 -2 -7 -13
-10 -23 -7 -13 3 -20 0 -21 -8 -1 -8 -4 -3 -8 11 -4 15 -3 28 3 32 15 10 18
10 12 -1z m334 -20 c0 -7 -6 -11 -14 -8 -10 4 -13 1 -10 -7 4 -9 -4 -13 -24
-12 -17 1 -28 4 -25 9 2 4 -3 7 -11 7 -8 0 -18 5 -22 11 -4 8 1 9 16 4 15 -5
20 -4 16 4 -5 7 6 10 34 8 26 -1 40 -7 40 -16z m-126 -6 c3 -8 1 -15 -5 -15
-6 0 -7 -4 -4 -10 3 -5 1 -10 -5 -10 -7 0 -9 8 -5 19 4 14 0 21 -12 24 -15 4
-14 5 3 6 12 0 24 -6 28 -14z m-30 -57 c-5 -9 -2 -9 9 1 15 12 17 11 17 -8 0
-12 -4 -19 -10 -16 -6 3 -7 -1 -4 -9 5 -12 0 -16 -20 -16 -14 0 -26 5 -26 11
0 5 4 8 9 5 4 -3 6 6 3 19 -3 19 0 25 12 25 11 0 14 -4 10 -12z m-504 -88 c0
-5 -5 -10 -11 -10 -5 0 -7 5 -4 10 3 6 8 10 11 10 2 0 4 -4 4 -10z m480 -55
c7 -8 9 -15 6 -15 -4 0 -14 7 -22 15 -9 8 -11 15 -6 15 5 0 15 -7 22 -15z
m-465 -35 c3 -5 1 -10 -4 -10 -6 0 -11 5 -11 10 0 6 2 10 4 10 3 0 8 -4 11
-10z m395 -20 c0 -5 -5 -10 -11 -10 -5 0 -7 -5 -3 -12 4 -7 3 -8 -5 -4 -6 4
-18 0 -27 -8 -9 -9 -21 -13 -27 -9 -7 4 -4 9 9 14 10 4 15 8 9 8 -5 1 1 8 15
15 31 17 40 19 40 6z m-656 -83 c3 3 6 1 6 -4 0 -7 -17 -10 -40 -9 -29 2 -40
-1 -36 -10 3 -7 -6 -14 -20 -17 -13 -2 -24 0 -24 4 0 5 7 9 16 9 8 0 13 4 10
9 -9 13 46 30 65 20 9 -5 19 -5 23 -2z m490 -79 c-3 -5 -12 -4 -20 3 -19 16
-18 18 6 12 11 -3 17 -9 14 -15z m383 16 c-3 -3 -12 -4 -19 -1 -8 3 -5 6 6 6
11 1 17 -2 13 -5z m-13 -34 c-22 -9 -29 -6 -20 9 4 6 14 7 23 4 15 -6 14 -7
-3 -13z m-57 -18 c-12 -3 -16 -9 -12 -23 4 -10 3 -19 -2 -20 -53 -6 -98 -3
-109 9 -21 21 -8 32 39 32 23 0 48 4 56 9 8 5 21 6 30 3 14 -6 14 -7 -2 -10z
m-507 -7 c-7 -9 -15 -13 -17 -11 -7 7 7 26 19 26 6 0 6 -6 -2 -15z m115 -25
c15 -17 16 -20 3 -20 -9 0 -18 9 -21 20 -3 11 -4 20 -3 20 2 0 11 -9 21 -20z
m258 -35 c-3 -9 -8 -14 -10 -11 -3 3 -2 9 2 15 9 16 15 13 8 -4z m107 -5 c0
-5 -4 -10 -10 -10 -5 0 -10 5 -10 10 0 6 5 10 10 10 6 0 10 -4 10 -10z m-170
-36 c0 -9 -33 -33 -45 -34 -5 0 -3 5 5 10 8 5 10 10 4 10 -18 0 -24 -13 -13
-27 9 -10 7 -13 -9 -13 -29 0 -17 36 17 49 32 12 41 13 41 5z m37 -9 c0 -8 -4
-15 -8 -15 -4 0 -9 7 -13 15 -3 9 0 15 8 15 7 0 13 -7 13 -15z m-342 -65 c3
-5 2 -10 -3 -10 -6 0 -15 -14 -21 -30 -11 -33 -36 -49 -53 -32 -7 7 0 21 23
45 37 38 45 42 54 27z m105 -10 c0 -5 -6 -10 -13 -10 -19 0 -40 -37 -24 -46 6
-4 9 -4 5 0 -4 5 5 18 20 31 25 21 28 22 51 7 13 -9 34 -15 47 -14 37 5 37
-25 -1 -43 -19 -10 -36 -26 -39 -40 -5 -21 -33 -41 -43 -31 -2 2 -5 16 -7 30
-4 37 -12 41 -38 17 -18 -17 -20 -24 -9 -30 8 -5 9 -11 3 -15 -5 -3 -13 1 -16
10 -10 26 -7 54 7 54 8 0 7 3 -3 10 -22 14 -30 0 -21 -40 4 -22 15 -39 31 -47
14 -7 23 -13 20 -13 -50 -8 -103 -3 -110 10 -12 20 -24 5 -15 -17 5 -10 7 -22
6 -27 -1 -5 6 -3 15 5 15 12 17 12 12 -1 -2 -8 -19 -18 -37 -23 -19 -4 -44
-15 -56 -23 -22 -14 -55 -10 -55 6 0 5 10 10 22 12 16 2 24 12 29 37 4 19 14
38 23 43 9 5 16 16 16 23 0 14 12 19 33 16 4 0 7 4 7 10 0 6 5 7 13 2 15 -9
37 -13 37 -6 0 3 -10 14 -22 25 l-23 19 25 19 c14 11 37 22 52 25 15 4 30 11
33 16 8 12 25 12 25 -1z m220 6 c0 -2 -7 -7 -16 -10 -8 -3 -12 -2 -9 4 6 10
25 14 25 6z m-620 -166 c0 -5 -5 -10 -11 -10 -5 0 -7 5 -4 10 3 6 8 10 11 10
2 0 4 -4 4 -10z m510 -10 c-6 -11 -18 -20 -28 -20 -14 1 -13 4 7 20 29 25 34
25 21 0z m-655 -20 c3 -5 -1 -10 -9 -10 -9 0 -16 5 -16 10 0 6 4 10 9 10 6 0
13 -4 16 -10z m215 -105 c0 -22 -57 -40 -86 -26 -20 9 -26 8 -31 -4 -3 -9 -2
-19 2 -23 4 -4 10 -1 12 6 3 6 8 12 12 12 7 0 7 -8 2 -52 -1 -4 -13 -3 -27 2
-29 11 -54 3 -33 -11 11 -7 10 -9 -3 -9 -67 0 -49 47 41 110 12 8 21 20 21 28
0 9 7 11 19 7 11 -3 23 0 27 6 8 14 44 -24 44 -46z m-240 33 c0 -4 -5 -10 -11
-13 -6 -4 -8 -13 -5 -21 3 -8 1 -14 -4 -14 -6 0 -10 5 -10 10 0 6 -8 5 -20 -2
-16 -10 -24 -10 -40 0 -24 15 -50 16 -50 1 0 -5 -5 -7 -11 -3 -14 8 0 22 31
28 14 3 39 9 55 14 35 11 65 11 65 0z m-155 -8 c-3 -5 -11 -10 -16 -10 -6 0
-7 5 -4 10 3 6 11 10 16 10 6 0 7 -4 4 -10z m32 -72 c-3 -8 -6 -5 -6 6 -1 11
2 17 5 13 3 -3 4 -12 1 -19z m-2312 -18 c3 -5 12 -7 20 -4 7 3 22 1 32 -5 16
-9 15 -10 -8 -11 -14 0 -39 5 -56 10 -19 7 -38 7 -54 1 -22 -9 -21 -10 13 -10
43 -1 150 -40 142 -52 -3 -5 -22 -2 -42 7 -48 20 -118 28 -127 14 -3 -5 -36
-10 -73 -11 -110 -2 -130 -15 -32 -21 47 -3 99 -8 115 -11 17 -3 59 -8 94 -12
81 -9 117 -19 137 -39 14 -15 12 -16 -18 -16 -19 0 -39 5 -45 11 -5 5 -45 11
-87 12 -42 1 -76 4 -76 8 0 16 -217 -5 -276 -28 -16 -6 -17 -4 -7 9 7 8 39 21
70 29 l58 14 -42 3 c-22 2 -58 -4 -78 -12 -52 -22 -55 -20 -14 8 41 28 159 66
211 69 21 1 32 4 25 9 -7 4 1 12 23 22 40 17 86 20 95 6z m-228 -36 c-3 -3
-12 -4 -19 -1 -8 3 -5 6 6 6 11 1 17 -2 13 -5z m2687 -31 c-26 -19 -36 -16
-22 6 6 11 18 17 26 13 12 -4 12 -8 -4 -19z m-2329 -13 c3 -5 2 -10 -4 -10 -5
0 -13 5 -16 10 -3 6 -2 10 4 10 5 0 13 -4 16 -10z m2282 -45 c0 -9 -10 -15
-24 -15 -24 0 -31 15 -10 23 23 10 34 7 34 -8z m-2600 -41 c-10 -10 -87 -22
-87 -13 0 4 8 10 18 12 27 7 76 8 69 1z m43 -4 c0 -5 -4 -10 -10 -10 -5 0 -10
5 -10 10 0 6 5 10 10 10 6 0 10 -4 10 -10z m229 -6 c2 -2 -12 -4 -32 -4 -20 0
-39 5 -42 11 -5 7 5 8 32 3 21 -4 40 -8 42 -10z m-454 -4 c4 -7 -3 -8 -22 -4
-38 9 -42 14 -10 14 14 0 29 -5 32 -10z m-100 -20 c-3 -5 -12 -10 -18 -10 -7
0 -6 4 3 10 19 12 23 12 15 0z m381 -27 c-7 -7 -87 -5 -95 3 -2 2 20 4 49 4
29 0 50 -3 46 -7z m654 -48 c0 -5 -5 -3 -10 5 -5 8 -10 20 -10 25 0 6 5 3 10
-5 5 -8 10 -19 10 -25z m2173 19 c7 -8 -17 -34 -32 -34 -14 0 -14 13 1 28 13
13 22 15 31 6z m-2173 -48 c0 -2 -7 -7 -16 -10 -8 -3 -12 -2 -9 4 6 10 25 14
25 6z m2832 -28 c7 -20 -16 -58 -34 -58 -17 0 -16 21 3 46 5 6 6 14 2 17 -3 4
1 7 10 7 8 0 17 -5 19 -12z m-102 -53 c0 -8 -6 -15 -14 -15 -17 0 -28 14 -19
24 12 12 33 6 33 -9z m-4057 -12 c-13 -2 -33 -2 -45 0 -13 2 -3 4 22 4 25 0
35 -2 23 -4z m60 -80 c-7 -2 -19 -2 -25 0 -7 3 -2 5 12 5 14 0 19 -2 13 -5z
m44 -9 c-3 -3 -12 -4 -19 -1 -8 3 -5 6 6 6 11 1 17 -2 13 -5z m33 -14 c0 -5
-5 -10 -11 -10 -5 0 -7 5 -4 10 3 6 8 10 11 10 2 0 4 -4 4 -10z m3255 0 c8
-13 -5 -13 -25 0 -13 8 -13 10 2 10 9 0 20 -4 23 -10z m-959 -40 c-3 -20 0
-30 9 -30 7 0 18 -7 25 -15 7 -9 19 -14 27 -11 7 3 13 1 13 -4 0 -6 6 -10 13
-10 20 0 73 -54 89 -91 35 -79 48 -116 53 -154 4 -22 10 -49 14 -60 5 -11 14
-33 20 -48 6 -15 11 -36 11 -47 0 -10 4 -20 9 -22 13 -4 21 -147 9 -154 -4 -3
-7 -13 -6 -22 2 -10 -4 -17 -13 -17 -22 0 -69 -36 -69 -52 0 -7 4 -13 9 -13
10 0 24 -30 18 -37 -3 -2 -19 20 -38 49 -36 58 -178 228 -190 228 -4 0 -10 8
-13 18 -6 17 -19 33 -127 149 -53 57 -57 68 -33 77 8 3 13 10 10 15 -3 5 1 11
9 15 8 3 23 21 32 41 16 33 16 37 1 52 -15 14 -15 19 -2 44 14 29 14 29 -11
19 -43 -16 -43 -11 0 12 41 21 95 68 79 68 -11 1 37 29 49 30 5 0 6 -13 3 -30z
m-2639 14 c-3 -3 -12 -4 -19 -1 -8 3 -5 6 6 6 11 1 17 -2 13 -5z m3548 -3 c17
-7 16 -9 -11 -13 -21 -3 -31 0 -31 9 0 14 12 15 42 4z m115 -28 c0 -14 -2 -14
-20 2 -11 10 -20 22 -20 27 0 5 9 4 20 -2 11 -6 20 -18 20 -27z m-3411 -17
c-10 -9 -79 -14 -79 -5 0 5 19 9 42 9 23 0 39 -2 37 -4z m3560 -98 l14 -23
-24 20 c-13 11 -26 21 -28 22 -2 2 2 3 10 3 8 0 20 -10 28 -22z m-52 -24 c-3
-3 -12 -4 -19 -1 -8 3 -5 6 6 6 11 1 17 -2 13 -5z m-3552 -14 c13 -5 14 -9 5
-9 -8 0 -24 4 -35 9 -13 5 -14 9 -5 9 8 0 24 -4 35 -9z m-140 -41 c43 -27 24
-23 -32 7 -26 14 -37 22 -23 18 14 -3 39 -15 55 -25z m3675 21 c12 -8 11 -10
-7 -10 -13 0 -23 5 -23 10 0 13 11 13 30 0z m-10 -40 c8 -5 11 -10 5 -10 -5 0
-17 5 -25 10 -8 5 -10 10 -5 10 6 0 17 -5 25 -10z m-3587 -7 c-7 -2 -19 -2
-25 0 -7 3 -2 5 12 5 14 0 19 -2 13 -5z m70 -10 c-7 -2 -21 -2 -30 0 -10 3 -4
5 12 5 17 0 24 -2 18 -5z m3484 -19 c-3 -3 -12 -4 -19 -1 -8 3 -5 6 6 6 11 1
17 -2 13 -5z m-1226 -81 c13 -16 12 -17 -3 -4 -10 7 -18 15 -18 17 0 8 8 3 21
-13z m1464 -313 c-3 -5 -10 -10 -16 -10 -5 0 -9 5 -9 10 0 6 7 10 16 10 8 0
12 -4 9 -10z m34 -31 c-25 -16 -33 -9 -13 10 10 10 21 14 23 8 2 -5 -3 -13
-10 -18z m-1064 -9 c3 -5 -1 -10 -10 -10 -9 0 -13 5 -10 10 3 6 8 10 10 10 2
0 7 -4 10 -10z m-24 -43 c-10 -9 -11 -8 -5 6 3 10 9 15 12 12 3 -3 0 -11 -7
-18z"/>
<path d="M4030 1750 c0 -6 7 -10 15 -10 8 0 15 2 15 4 0 2 -7 6 -15 10 -8 3
-15 1 -15 -4z"/>
<path d="M3888 1678 c14 -14 42 -20 42 -8 0 8 -25 20 -43 20 -8 0 -7 -4 1 -12z"/>
<path d="M4140 2730 c-12 -8 -12 -10 2 -15 10 -4 23 -5 30 -2 7 3 4 6 -7 6
-17 1 -17 3 -5 11 8 5 11 10 5 10 -5 0 -17 -4 -25 -10z"/>
<path d="M2670 2695 c0 -2 15 -12 33 -20 l32 -16 -25 20 c-24 20 -40 26 -40
16z"/>
<path d="M3821 2646 c-7 -8 -9 -20 -5 -27 4 -7 2 -10 -7 -7 -8 3 -13 12 -11
19 3 12 1 12 -10 0 -10 -11 -10 -14 0 -18 6 -3 10 -9 7 -13 -3 -5 0 -12 6 -16
8 -4 9 -3 5 4 -4 7 -2 12 4 12 20 0 37 25 30 44 -5 16 -7 16 -19 2z"/>
<path d="M3821 2577 c-6 -8 -8 -17 -4 -20 3 -4 -2 -7 -13 -8 -10 0 -13 -3 -6
-6 18 -7 15 -23 -5 -23 -9 0 -14 -3 -10 -6 3 -3 21 -3 39 1 29 7 30 9 13 16
-15 6 -16 8 -4 8 9 1 20 8 23 17 4 11 2 15 -8 11 -10 -4 -13 -1 -9 9 7 18 -1
18 -16 1z"/>
<path d="M3040 2519 c0 -5 5 -7 10 -4 6 3 10 8 10 11 0 2 -4 4 -10 4 -5 0 -10
-5 -10 -11z"/>
<path d="M2914 2508 c-3 -4 -19 -5 -36 -1 -20 4 -29 3 -25 -4 8 -12 -24 -23
-65 -23 -16 0 -27 -3 -27 -7 3 -20 -3 -23 -23 -13 -23 11 -23 11 -3 -6 14 -11
16 -18 7 -21 -6 -3 -9 -9 -6 -14 3 -6 -6 -22 -21 -37 -15 -15 -22 -28 -16 -30
7 -2 9 -16 5 -38 -6 -33 -5 -34 23 -28 29 6 73 10 130 13 39 1 62 23 59 56 -3
21 1 25 25 25 28 0 98 -29 99 -42 0 -3 -13 -11 -30 -17 -16 -5 -30 -12 -30
-14 0 -2 14 -2 30 1 17 2 30 9 30 14 0 6 14 8 35 5 22 -4 37 -1 41 6 4 7 4 9
0 5 -5 -4 -17 2 -28 12 -31 29 -82 50 -120 50 -18 0 -50 3 -71 7 -53 8 -27 23
38 22 69 -2 99 -10 129 -36 30 -26 37 -28 34 -10 -2 6 -21 23 -43 37 -34 21
-52 24 -122 24 -45 0 -80 4 -77 8 3 4 13 8 23 8 21 0 131 47 131 55 0 8 -91 1
-96 -7z m-67 -104 c-3 -3 -12 -4 -19 -1 -8 3 -5 6 6 6 11 1 17 -2 13 -5z m-92
-85 c10 -14 1 -21 -19 -13 -9 3 -13 10 -10 15 7 12 21 11 29 -2z"/>
<path d="M1895 2490 c-46 -6 -47 -7 -13 -8 21 -1 61 -11 90 -22 28 -11 77 -22
107 -26 31 -3 64 -10 73 -15 11 -6 26 -5 42 3 49 21 26 42 -49 44 -27 0 -70 5
-95 9 -35 7 -40 10 -25 16 25 9 -58 9 -130 -1z"/>
<path d="M1753 2463 c9 -2 25 -2 35 0 9 3 1 5 -18 5 -19 0 -27 -2 -17 -5z"/>
<path d="M3224 2441 c3 -18 6 -54 6 -79 0 -25 3 -42 7 -39 10 10 3 119 -9 137
-7 11 -8 5 -4 -19z"/>
<path d="M1818 2443 c7 -3 16 -2 19 1 4 3 -2 6 -13 5 -11 0 -14 -3 -6 -6z"/>
<path d="M1876 2398 c-26 -5 -55 -15 -63 -23 -8 -8 -21 -15 -28 -15 -8 0 -19
-9 -25 -20 -14 -26 -2 -25 57 4 59 30 122 45 186 46 26 0 47 5 47 10 0 12
-106 11 -174 -2z"/>
<path d="M2070 2401 c0 -6 17 -13 38 -17 49 -9 88 -29 96 -50 5 -12 2 -15 -10
-10 -8 3 -18 6 -20 6 -3 0 -3 4 1 9 3 5 -8 9 -24 9 -17 -1 -37 4 -45 11 -11 9
-15 9 -18 -1 -4 -10 -8 -10 -19 -1 -20 16 -135 9 -176 -12 -18 -9 -38 -13 -45
-9 -7 4 -10 3 -5 -1 4 -5 -14 -16 -40 -24 -64 -22 -68 -40 -6 -34 63 5 134 4
156 -3 9 -3 17 -2 17 3 0 5 11 10 26 11 14 1 23 -2 20 -6 -2 -4 13 -7 34 -7
37 0 38 1 33 28 -4 20 -2 27 10 27 28 0 74 -25 70 -38 -4 -9 1 -10 21 -2 20 7
27 6 35 -8 7 -11 11 -12 11 -4 0 8 5 10 13 6 7 -5 6 0 -3 11 -8 10 -15 28 -15
39 0 14 -13 28 -40 42 -46 25 -115 40 -115 25z m-145 -101 c4 -6 -7 -10 -24
-10 -17 0 -31 5 -31 10 0 6 11 10 24 10 14 0 28 -4 31 -10z"/>
<path d="M2120 2366 c0 -2 7 -7 16 -10 8 -3 12 -2 9 4 -6 10 -25 14 -25 6z"/>
<path d="M3507 2333 c-10 -9 -9 -23 1 -23 5 0 9 7 9 15 0 17 -1 18 -10 8z"/>
<path d="M3787 2303 c-4 -3 -7 -11 -7 -17 0 -6 5 -5 12 2 6 6 9 14 7 17 -3 3
-9 2 -12 -2z"/>
<path d="M2933 2293 c9 -2 23 -2 30 0 6 3 -1 5 -18 5 -16 0 -22 -2 -12 -5z"/>
<path d="M2118 2283 c6 -2 18 -2 25 0 6 3 1 5 -13 5 -14 0 -19 -2 -12 -5z"/>
<path d="M3745 2261 c-20 -4 -26 -9 -18 -14 11 -7 53 7 53 18 0 3 -1 4 -2 4
-2 -1 -16 -4 -33 -8z"/>
<path d="M3680 2150 c0 -5 7 -7 15 -4 8 4 15 8 15 10 0 2 -7 4 -15 4 -8 0 -15
-4 -15 -10z"/>
<path d="M3644 2114 c3 -9 6 -18 6 -20 0 -2 9 -4 20 -4 25 0 26 16 1 30 -27
14 -34 13 -27 -6z"/>
<path d="M3625 2061 c-10 -18 36 -24 53 -7 15 15 14 16 -15 16 -18 0 -34 -4
-38 -9z"/>
<path d="M3520 1952 c0 -6 -7 -9 -15 -6 -8 4 -15 1 -15 -5 0 -6 6 -11 14 -11
17 0 31 18 22 27 -3 4 -6 1 -6 -5z"/>
<path d="M3343 1893 c5 -8 -2 -13 -20 -15 -17 -2 -28 -9 -28 -18 0 -8 -6 -21
-13 -28 -13 -15 -6 -36 9 -26 5 3 6 10 3 16 -5 8 -1 9 10 5 10 -4 22 -7 27 -7
6 0 5 -9 -1 -21 -15 -27 -13 -28 45 -34 45 -4 47 -4 29 11 -14 11 -15 14 -3
11 12 -4 15 0 11 19 -4 21 -1 24 24 24 35 0 48 9 52 33 3 17 -13 18 -66 1 -7
-2 -11 0 -8 4 2 4 1 14 -4 22 -7 11 -11 11 -24 1 -13 -11 -19 -11 -33 0 -10 8
-14 9 -10 2z"/>
<path d="M1398 1863 c7 -3 16 -2 19 1 4 3 -2 6 -13 5 -11 0 -14 -3 -6 -6z"/>
<path d="M2205 1850 c3 -5 8 -10 11 -10 2 0 4 5 4 10 0 6 -5 10 -11 10 -5 0
-7 -4 -4 -10z"/>
<path d="M2910 1809 c6 -11 18 -23 26 -26 8 -3 13 -11 11 -17 -3 -7 4 -23 14
-37 10 -13 19 -18 19 -11 0 10 4 9 16 -2 22 -22 24 -50 5 -58 -14 -6 -13 -7 3
-7 14 -1 17 -7 14 -26 -7 -35 10 -42 22 -10 15 40 11 88 -8 110 -10 11 -39 39
-65 63 -51 46 -75 55 -57 21z"/>
<path d="M3450 1800 c0 -11 40 -34 47 -26 7 7 -22 36 -36 36 -6 0 -11 -4 -11
-10z"/>
<path d="M2299 1779 c-14 -8 20 -20 69 -23 15 -1 41 -10 59 -19 47 -25 53 -21
10 8 -40 28 -118 47 -138 34z"/>
<path d="M2005 1744 c-79 -69 -103 -95 -110 -121 -3 -14 -2 -30 3 -35 6 -6 12
3 16 22 3 17 10 29 16 25 5 -3 10 0 10 8 0 8 7 18 16 21 8 3 12 10 9 16 -3 5
1 10 10 10 9 0 13 4 10 10 -3 6 1 7 9 4 11 -4 16 0 16 14 0 11 10 26 23 35 12
8 20 17 17 21 -3 3 -24 -10 -45 -30z"/>
<path d="M3290 1740 c0 -6 7 -10 15 -10 8 0 15 2 15 4 0 2 -7 6 -15 10 -8 3
-15 1 -15 -4z"/>
<path d="M3445 1720 c-3 -5 -1 -10 4 -10 6 0 11 5 11 10 0 6 -2 10 -4 10 -3 0
-8 -4 -11 -10z"/>
<path d="M2865 1611 c-61 -34 -71 -44 -81 -77 -6 -22 -18 -40 -27 -42 -10 -2
-17 -10 -17 -17 0 -7 -8 -15 -17 -17 -16 -3 -17 -4 -1 -10 11 -5 33 10 72 50
38 39 59 53 64 45 5 -8 14 -3 27 18 23 34 54 47 66 28 8 -12 10 -12 18 0 10
16 3 42 -13 53 -15 11 -13 11 -91 -31z"/>
<path d="M1971 1591 c-12 -24 -2 -41 24 -41 13 0 36 -13 52 -30 18 -20 34 -28
46 -24 9 3 32 -3 50 -14 17 -10 40 -17 50 -15 10 3 24 -1 32 -7 16 -14 20 -3
6 19 -5 8 -14 10 -21 6 -8 -5 -18 -2 -24 6 -6 8 -20 19 -31 25 -11 6 -22 19
-23 29 -3 14 1 16 20 12 49 -13 225 -38 288 -42 65 -4 65 -4 15 5 -27 5 -76
12 -107 16 -82 10 -72 23 15 19 l72 -3 -80 8 c-44 5 -129 14 -190 19 -60 5
-127 14 -148 19 -31 8 -39 7 -46 -7z m302 -38 c-7 -2 -21 -2 -30 0 -10 3 -4 5
12 5 17 0 24 -2 18 -5z"/>
<path d="M1018 1563 c-24 -6 -23 -23 0 -23 10 0 19 7 19 15 0 8 -1 14 -1 14
-1 -1 -9 -3 -18 -6z"/>
<path d="M1073 1560 c-13 -5 -23 -14 -23 -20 0 -5 -15 -10 -32 -10 -29 -1 -30
-2 -14 -11 14 -9 27 -7 57 7 21 11 39 25 39 32 0 6 -1 12 -2 11 -2 0 -13 -4
-25 -9z"/>
<path d="M1900 1560 c0 -5 5 -10 11 -10 5 0 7 5 4 10 -3 6 -8 10 -11 10 -2 0
-4 -4 -4 -10z"/>
<path d="M2740 1560 c-21 -7 -21 -8 -5 -9 11 0 27 4 35 9 18 11 5 11 -30 0z"/>
<path d="M613 1547 c-4 -8 -15 -16 -23 -19 -10 -3 -9 -6 6 -10 22 -6 52 26 34
37 -5 3 -12 -1 -17 -8z"/>
<path d="M2600 1529 c-39 -11 -51 -17 -30 -15 43 5 143 34 115 34 -11 0 -49
-8 -85 -19z"/>
<path d="M2280 1455 c-10 -12 -10 -19 -2 -27 9 -9 12 -9 12 0 0 18 50 15 57
-4 5 -13 7 -13 14 -2 6 9 -2 18 -24 30 -40 21 -42 21 -57 3z"/>
<path d="M2677 1458 c-11 -5 -30 -8 -43 -5 -14 2 -27 0 -30 -4 -3 -5 2 -9 11
-9 8 0 20 -10 24 -22 8 -20 10 -21 16 -5 4 9 13 17 20 17 7 0 16 7 19 16 8 22
5 25 -17 12z"/>
<path d="M2390 1450 c-13 -8 -12 -10 3 -10 9 0 17 5 17 10 0 12 -1 12 -20 0z"/>
<path d="M2497 1444 c-3 -4 -21 -9 -39 -13 -23 -5 -8 -7 47 -7 44 0 67 2 50 4
-16 2 -35 8 -41 13 -6 5 -14 6 -17 3z"/>
<path d="M650 1405 c-7 -9 -8 -15 -2 -15 5 0 12 7 16 15 3 8 4 15 2 15 -2 0
-9 -7 -16 -15z"/>
<path d="M0 1250 c0 -5 5 -10 10 -10 6 0 10 5 10 10 0 6 -4 10 -10 10 -5 0
-10 -4 -10 -10z"/>
<path d="M200 1240 c-9 -6 -10 -10 -3 -10 6 0 15 5 18 10 8 12 4 12 -15 0z"/>
<path d="M238 1233 c7 -3 16 -2 19 1 4 3 -2 6 -13 5 -11 0 -14 -3 -6 -6z"/>
</g>
</svg>
